<?xml version="1.0" encoding="us-ascii" standalone="no"?><svg xmlns="http://www.w3.org/2000/svg" xmlns:xlink="http://www.w3.org/1999/xlink" contentStyleType="text/css" height="402px" preserveAspectRatio="none" style="width:337px;height:402px;background:#F0F0F0;" version="1.1" viewBox="0 0 337 402" width="337px" zoomAndPan="magnify"><defs/><g><rect fill="#F0F0F0" height="402" style="stroke:none;stroke-width:1.0;" width="337" x="0" y="0"/><g id="cluster_CNAME Records"><path d="M8.5,6 L134.5,6 A3.75,3.75 0 0 1 137,8.5 L144,28.2969 L269.5,28.2969 A2.5,2.5 0 0 1 272,30.7969 L272,100.5 A2.5,2.5 0 0 1 269.5,103 L8.5,103 A2.5,2.5 0 0 1 6,100.5 L6,8.5 A2.5,2.5 0 0 1 8.5,6 " fill="none" style="stroke:#000000;stroke-width:1.5;"/><line style="stroke:#000000;stroke-width:1.5;" x1="6" x2="144" y1="28.2969" y2="28.2969"/><text fill="#000000" font-family="sans-serif" font-size="14" font-weight="bold" lengthAdjust="spacing" textLength="125" x="10" y="20.9951">CNAME Records</text></g><g id="cluster_Domains"><path d="M65.5,152 L133.5,152 A3.75,3.75 0 0 1 136,154.5 L143,174.2969 L327.5,174.2969 A2.5,2.5 0 0 1 330,176.7969 L330,246.5 A2.5,2.5 0 0 1 327.5,249 L65.5,249 A2.5,2.5 0 0 1 63,246.5 L63,154.5 A2.5,2.5 0 0 1 65.5,152 " fill="none" style="stroke:#000000;stroke-width:1.5;"/><line style="stroke:#000000;stroke-width:1.5;" x1="63" x2="143" y1="174.2969" y2="174.2969"/><text fill="#000000" font-family="sans-serif" font-size="14" font-weight="bold" lengthAdjust="spacing" textLength="67" x="67" y="166.9951">Domains</text></g><g id="cluster_Load Balancers"><path d="M99.5,298 L220.5,298 A3.75,3.75 0 0 1 223,300.5 L230,320.2969 L301.5,320.2969 A2.5,2.5 0 0 1 304,322.7969 L304,392.5 A2.5,2.5 0 0 1 301.5,395 L99.5,395 A2.5,2.5 0 0 1 97,392.5 L97,300.5 A2.5,2.5 0 0 1 99.5,298 " fill="none" style="stroke:#000000;stroke-width:1.5;"/><line style="stroke:#000000;stroke-width:1.5;" x1="97" x2="230" y1="320.2969" y2="320.2969"/><text fill="#000000" font-family="sans-serif" font-size="14" font-weight="bold" lengthAdjust="spacing" textLength="120" x="101" y="312.9951">Load Balancers</text></g><g id="elem_CNAME1"><rect fill="#F1F1F1" height="46.2969" rx="2.5" ry="2.5" style="stroke:#181818;stroke-width:0.5;" width="99" x="22.5" y="41"/><rect fill="#F1F1F1" height="10" style="stroke:#181818;stroke-width:0.5;" width="15" x="101.5" y="46"/><rect fill="#F1F1F1" height="2" style="stroke:#181818;stroke-width:0.5;" width="4" x="99.5" y="48"/><rect fill="#F1F1F1" height="2" style="stroke:#181818;stroke-width:0.5;" width="4" x="99.5" y="52"/><text fill="#000000" font-family="sans-serif" font-size="14" lengthAdjust="spacing" textLength="59" x="37.5" y="73.9951">CNAME1</text></g><g id="elem_CNAME2"><rect fill="#F1F1F1" height="46.2969" rx="2.5" ry="2.5" style="stroke:#181818;stroke-width:0.5;" width="99" x="156.5" y="41"/><rect fill="#F1F1F1" height="10" style="stroke:#181818;stroke-width:0.5;" width="15" x="235.5" y="46"/><rect fill="#F1F1F1" height="2" style="stroke:#181818;stroke-width:0.5;" width="4" x="233.5" y="48"/><rect fill="#F1F1F1" height="2" style="stroke:#181818;stroke-width:0.5;" width="4" x="233.5" y="52"/><text fill="#000000" font-family="sans-serif" font-size="14" lengthAdjust="spacing" textLength="59" x="171.5" y="73.9951">CNAME2</text></g><g id="elem_domain1"><rect fill="#F1F1F1" height="46.2969" rx="2.5" ry="2.5" style="stroke:#181818;stroke-width:0.5;" width="100" x="79" y="187"/><rect fill="#F1F1F1" height="10" style="stroke:#181818;stroke-width:0.5;" width="15" x="159" y="192"/><rect fill="#F1F1F1" height="2" style="stroke:#181818;stroke-width:0.5;" width="4" x="157" y="194"/><rect fill="#F1F1F1" height="2" style="stroke:#181818;stroke-width:0.5;" width="4" x="157" y="198"/><text fill="#000000" font-family="sans-serif" font-size="14" lengthAdjust="spacing" textLength="60" x="94" y="219.9951">domain1</text></g><g id="elem_domain2"><rect fill="#F1F1F1" height="46.2969" rx="2.5" ry="2.5" style="stroke:#181818;stroke-width:0.5;" width="100" x="214" y="187"/><rect fill="#F1F1F1" height="10" style="stroke:#181818;stroke-width:0.5;" width="15" x="294" y="192"/><rect fill="#F1F1F1" height="2" style="stroke:#181818;stroke-width:0.5;" width="4" x="292" y="194"/><rect fill="#F1F1F1" height="2" style="stroke:#181818;stroke-width:0.5;" width="4" x="292" y="198"/><text fill="#000000" font-family="sans-serif" font-size="14" lengthAdjust="spacing" textLength="60" x="229" y="219.9951">domain2</text></g><g id="elem_elb1"><rect fill="#F1F1F1" height="46.2969" rx="2.5" ry="2.5" style="stroke:#181818;stroke-width:0.5;" width="70" x="113" y="333"/><rect fill="#F1F1F1" height="10" style="stroke:#181818;stroke-width:0.5;" width="15" x="163" y="338"/><rect fill="#F1F1F1" height="2" style="stroke:#181818;stroke-width:0.5;" width="4" x="161" y="340"/><rect fill="#F1F1F1" height="2" style="stroke:#181818;stroke-width:0.5;" width="4" x="161" y="344"/><text fill="#000000" font-family="sans-serif" font-size="14" lengthAdjust="spacing" textLength="30" x="128" y="365.9951">elb1</text></g><g id="elem_elb2"><rect fill="#F1F1F1" height="46.2969" rx="2.5" ry="2.5" style="stroke:#181818;stroke-width:0.5;" width="70" x="218" y="333"/><rect fill="#F1F1F1" height="10" style="stroke:#181818;stroke-width:0.5;" width="15" x="268" y="338"/><rect fill="#F1F1F1" height="2" style="stroke:#181818;stroke-width:0.5;" width="4" x="266" y="340"/><rect fill="#F1F1F1" height="2" style="stroke:#181818;stroke-width:0.5;" width="4" x="266" y="344"/><text fill="#000000" font-family="sans-serif" font-size="14" lengthAdjust="spacing" textLength="30" x="233" y="365.9951">elb2</text></g><g id="link_CNAME1_domain1"><path d="M80.2416,87.125 C85.5131,101.163 92.549,119.69 99,136 C105.753,153.074 111.3518,166.7341 117.3508,181.1571 " fill="none" id="CNAME1-to-domain1" style="stroke:#444444;stroke-width:1.0;"/><polygon fill="#444444" points="119.655,186.697,119.8919,176.851,117.7348,182.0804,112.5054,179.9233,119.655,186.697" style="stroke:#444444;stroke-width:1.0;"/><text fill="#000000" font-family="sans-serif" font-size="13" lengthAdjust="spacing" textLength="52" x="100" y="132.0669">&#21035;&#21517;&#35299;&#26512;</text></g><g id="link_CNAME2_domain1"><path d="M194.137,87.184 C179.71,114.166 158.3233,154.163 143.8323,181.262 " fill="none" id="CNAME2-to-domain1" style="stroke:#444444;stroke-width:1.0;"/><polygon fill="#444444" points="141.003,186.553,148.7743,180.5027,143.3608,182.1438,141.7197,176.7303,141.003,186.553" style="stroke:#444444;stroke-width:1.0;"/><text fill="#000000" font-family="sans-serif" font-size="13" lengthAdjust="spacing" textLength="52" x="178" y="132.0669">&#21035;&#21517;&#35299;&#26512;</text></g><g id="link_domain1_elb1"><path d="M131.927,233.184 C135.487,260.166 140.6783,299.5055 144.2533,326.6046 " fill="none" id="domain1-to-elb1" style="stroke:#444444;stroke-width:1.0;"/><polygon fill="#444444" points="145.038,332.5531,147.8265,323.1072,144.3841,327.596,139.8952,324.1536,145.038,332.5531" style="stroke:#444444;stroke-width:1.0;"/><text fill="#000000" font-family="sans-serif" font-size="13" lengthAdjust="spacing" textLength="52" x="139" y="278.0669">&#31616;&#21333;&#35299;&#26512;</text></g><g id="link_domain2_elb2"><path d="M262.305,233.184 C260.244,260.166 257.242,299.4714 255.172,326.5705 " fill="none" id="domain2-to-elb2" style="stroke:#444444;stroke-width:1.0;"/><polygon fill="#444444" points="254.715,332.5531,259.3889,323.8839,255.0958,327.5676,251.4121,323.2746,254.715,332.5531" style="stroke:#444444;stroke-width:1.0;"/><text fill="#000000" font-family="sans-serif" font-size="13" lengthAdjust="spacing" textLength="52" x="260" y="278.0669">&#31616;&#21333;&#35299;&#26512;</text></g></g></svg>